<svg xmlns="http://www.w3.org/2000/svg" enable-background="new 0 0 24 24" viewBox="0 0 24 24" id="wolfram-language">
  <path fill="#6766DB" d="M14.66,9.99c-0.115,0-0.229-0.04-0.321-0.117l-1.85-1.551c-0.069-0.058-0.121-0.134-0.151-0.219l-0.681-1.959c-0.066-0.191-0.011-0.404,0.142-0.539c0.913-0.805,1.099-0.995,2.314-2.176c0.167-0.16,0.423-0.187,0.616-0.061c0.516,0.33,0.465,5.643,0.43,6.155c-0.013,0.188-0.13,0.353-0.304,0.426C14.793,9.978,14.727,9.99,14.66,9.99z"></path>
  <path fill="#110638" d="M12,24C5.383,24,0,18.617,0,12S5.383,0,12,0s12,5.383,12,12S18.617,24,12,24z M12,1C5.935,1,1,5.935,1,12s4.935,11,11,11s11-4.935,11-11S18.065,1,12,1z"></path>
  <path fill="#110638" d="M13.23,13c-0.091,0-0.181-0.024-0.261-0.073c-0.611-0.373-1.044-0.517-1.405-0.471c-0.157,0.02-0.314-0.035-0.425-0.149c-0.109-0.113-0.159-0.273-0.133-0.43c0.059-0.346,0.146-0.599,0.24-0.865l0.05-0.144c0.06-0.175,0.211-0.302,0.393-0.331c1.357-0.223,2.334,0.558,3.121,1.181c0.146,0.116,0.217,0.305,0.18,0.489c-0.036,0.184-0.173,0.332-0.354,0.383c-0.329,0.094-0.495,0.147-0.681,0.208c-0.151,0.048-0.315,0.102-0.582,0.181C13.327,12.993,13.278,13,13.23,13z M12.18,11.501c0.406,0.087,0.787,0.269,1.116,0.457c0.039-0.013,0.075-0.023,0.11-0.034C13.027,11.684,12.626,11.51,12.18,11.501z"></path>
  <path fill="#110638" d="M13.23,13c-0.091,0-0.181-0.024-0.261-0.073c-0.611-0.373-1.044-0.517-1.405-0.471c-0.157,0.02-0.314-0.035-0.425-0.149c-0.109-0.113-0.159-0.273-0.133-0.43c0.059-0.346,0.146-0.599,0.24-0.865l0.05-0.144c0.06-0.175,0.211-0.302,0.393-0.331c1.357-0.223,2.334,0.558,3.121,1.181c0.146,0.116,0.217,0.305,0.18,0.489c-0.036,0.184-0.173,0.332-0.354,0.383c-0.329,0.094-0.495,0.147-0.681,0.208c-0.151,0.048-0.315,0.102-0.582,0.181C13.327,12.993,13.278,13,13.23,13z M12.18,11.501c0.406,0.087,0.787,0.269,1.116,0.457c0.039-0.013,0.075-0.023,0.11-0.034C13.027,11.684,12.626,11.51,12.18,11.501z"></path>
  <path fill="#110638" d="M13.23,13c-0.091,0-0.181-0.024-0.261-0.073c-0.611-0.373-1.044-0.517-1.405-0.471c-0.157,0.02-0.314-0.035-0.425-0.149c-0.109-0.113-0.159-0.273-0.133-0.43c0.059-0.346,0.146-0.599,0.24-0.865l0.05-0.144c0.06-0.175,0.211-0.302,0.393-0.331c1.357-0.223,2.334,0.558,3.121,1.181c0.146,0.116,0.217,0.305,0.18,0.489c-0.036,0.184-0.173,0.332-0.354,0.383c-0.329,0.094-0.495,0.147-0.681,0.208c-0.151,0.048-0.315,0.102-0.582,0.181C13.327,12.993,13.278,13,13.23,13z M12.18,11.501c0.406,0.087,0.787,0.269,1.116,0.457c0.039-0.013,0.075-0.023,0.11-0.034C13.027,11.684,12.626,11.51,12.18,11.501z"></path>
  <path fill="#110638" d="M14.24,15.944c-0.013,0-0.025,0-0.038-0.001L7.77,15.47c-0.261-0.02-0.463-0.237-0.463-0.499c0-0.049,0.013-0.978,0.902-1.933c-0.326-0.062-0.672-0.139-0.956-0.229c-0.174-0.054-0.305-0.198-0.341-0.377s0.027-0.362,0.166-0.48c0.193-0.164,1.187-0.994,1.793-1.199c0.262-0.086,0.546,0.052,0.634,0.313c0.089,0.262-0.052,0.545-0.313,0.634c-0.148,0.051-0.392,0.2-0.65,0.383c0.479,0.085,0.891,0.136,0.898,0.137c0.209,0.025,0.38,0.179,0.427,0.384s-0.039,0.418-0.216,0.532c-0.75,0.484-1.082,1.014-1.229,1.379l5.854,0.431c0.275,0.021,0.481,0.261,0.462,0.536C14.719,15.744,14.499,15.944,14.24,15.944z"></path>
  <path fill="#110638" d="M12,24c-4.146,0-7.937-2.095-10.143-5.604c-0.063-0.1-0.089-0.219-0.072-0.335c0.199-1.443,1.178-6.445,5.422-10.55c0.875-2.478,2.03-4.296,3.434-5.404c0.128-0.102,0.298-0.135,0.455-0.086c0.156,0.048,0.279,0.169,0.33,0.324c0.226,0.697,0.396,1.18,0.563,1.651c0.187,0.53,0.369,1.047,0.618,1.832l0.631,1.815l1.744,1.463c0.01,0.008,0.02,0.017,0.028,0.025c1.422,1.394,5.707,4.004,5.75,4.029c0.12,0.073,0.203,0.193,0.23,0.331s-0.005,0.28-0.088,0.394c-1.602,2.176-1.897,2.277-2.04,2.326c-0.309,0.137-1.187,0.091-1.86,0.025l-1.711-0.184l3.636,5.115c0.105,0.148,0.122,0.341,0.044,0.505c-0.041,0.088-0.114,0.167-0.2,0.224l0.003,0.004C16.772,23.274,14.431,24,12,24z M2.802,18.018C4.837,21.141,8.262,23,12,23c2.071,0,4.072-0.574,5.816-1.666l-3.983-5.604c-0.114-0.161-0.124-0.373-0.024-0.543s0.29-0.271,0.484-0.244l2.81,0.301c0.604,0.058,1.269,0.073,1.418,0.031c0.122-0.099,0.699-0.816,1.252-1.546c-1.174-0.73-4.212-2.664-5.448-3.867l-1.835-1.539c-0.069-0.058-0.121-0.134-0.151-0.219l-0.681-1.959c-0.249-0.785-0.428-1.293-0.612-1.815c-0.104-0.296-0.21-0.596-0.33-0.948C9.689,4.413,8.798,5.977,8.112,7.954c-0.026,0.075-0.07,0.143-0.128,0.197C4.064,11.892,3.045,16.445,2.802,18.018z"></path>
</svg>
